<svg width="36" height="36" viewBox="0 0 36 36" fill="none" xmlns="http://www.w3.org/2000/svg">
<path d="M18 36C27.9411 36 36 27.9411 36 18C36 8.05887 27.9411 0 18 0C8.05887 0 0 8.05887 0 18C0 27.9411 8.05887 36 18 36Z" fill="black"/>
<path d="M18.0888 29.9134C18.3618 29.9134 18.5832 30.1323 18.5832 30.4024C18.5832 30.6724 18.3618 30.8913 18.0888 30.8913C17.8158 30.8913 17.5945 30.6724 17.5945 30.4024C17.5945 30.1323 17.8158 29.9134 18.0888 29.9134ZM17.5518 6.55727C17.7934 6.57722 17.9885 6.76028 18.0212 6.99761L18.6091 11.2698C18.8066 12.6812 20.5089 13.2928 21.5598 12.3337L27.4509 6.97164C27.593 6.8423 27.8143 6.85127 27.9453 6.99167C28.0653 7.12048 28.069 7.31769 27.9536 7.45071L22.8165 13.3765C21.8708 14.4655 22.5686 16.166 24.0102 16.2874L28.5429 16.7243C28.7687 16.7461 28.9338 16.9445 28.9118 17.1676C28.8936 17.3515 28.7519 17.5001 28.5671 17.5289L23.8042 18.2726C22.4214 18.4611 21.7952 20.0987 22.6946 21.1626L24.369 23.1366C24.5039 23.2956 24.4828 23.5325 24.3218 23.6658C24.1855 23.7788 23.988 23.7831 23.8466 23.6764L21.7825 22.1175C20.6686 21.2799 19.0631 21.9918 18.9454 23.3782L18.4905 28.7849C18.4717 29.0082 18.2733 29.1742 18.0472 29.1557C17.8553 29.1399 17.7003 28.9946 17.6743 28.8062L16.953 23.5835C16.7597 22.172 15.0574 21.5604 14.0024 22.5196L7.73538 28.2261C7.60566 28.3442 7.40358 28.336 7.28402 28.2079C7.17433 28.0902 7.171 27.9102 7.27626 27.7887L12.7457 21.4767C13.6914 20.3877 12.9979 18.6872 11.5562 18.5659L7.02243 18.1288C6.79668 18.1071 6.63153 17.9086 6.65356 17.6856C6.67172 17.5016 6.8134 17.3531 6.99816 17.3242L11.7579 16.5806C13.1408 16.3921 13.7713 14.7545 12.8718 13.6907L11.732 12.3469C11.5647 12.1497 11.5909 11.8559 11.7905 11.6906C11.9597 11.5505 12.2046 11.5452 12.3799 11.6777L13.7796 12.7357C14.8935 13.5734 16.4991 12.8614 16.6168 11.4751L16.9933 7.0239C17.0171 6.74269 17.2671 6.53377 17.5518 6.55727ZM5.49435 17.1859C5.76737 17.1859 5.9887 17.4048 5.9887 17.6748C5.9887 17.9449 5.76737 18.1638 5.49435 18.1638C5.22133 18.1638 5 17.9449 5 17.6748C5 17.4048 5.22133 17.1859 5.49435 17.1859ZM30.2878 16.6894C30.5608 16.6894 30.7822 16.9084 30.7822 17.1784C30.7822 17.4484 30.5608 17.6673 30.2878 17.6673C30.0148 17.6673 29.7934 17.4484 29.7934 17.1784C29.7934 16.9084 30.0148 16.6894 30.2878 16.6894ZM17.4804 5C17.7534 5 17.9747 5.21891 17.9747 5.48894C17.9747 5.75898 17.7534 5.97788 17.4804 5.97788C17.2074 5.97788 16.9861 5.75898 16.9861 5.48894C16.9861 5.21891 17.2074 5 17.4804 5Z" fill="url(#paint0_linear_65_1474)"/>
<path d="M17.7771 22.0452C20.3561 22.0452 22.4468 19.9774 22.4468 17.4266C22.4468 14.8758 20.3561 12.808 17.7771 12.808C15.1981 12.808 13.1074 14.8758 13.1074 17.4266C13.1074 19.9774 15.1981 22.0452 17.7771 22.0452Z" fill="url(#paint1_radial_65_1474)"/>
<defs>
<linearGradient id="paint0_linear_65_1474" x1="8.36874" y1="9.1184" x2="23.1536" y2="22.5028" gradientUnits="userSpaceOnUse">
<stop stop-color="#FFC10B"/>
<stop offset="1" stop-color="#FB3F2E"/>
</linearGradient>
<radialGradient id="paint1_radial_65_1474" cx="0" cy="0" r="1" gradientUnits="userSpaceOnUse" gradientTransform="translate(16.7107 15.7215) rotate(67.5196) scale(6.78912 6.85511)">
<stop stop-color="#FFC10B"/>
<stop offset="1" stop-color="#FB3F2E"/>
</radialGradient>
</defs>
</svg>
