<svg width="13" height="14" viewBox="0 0 13 14" fill="none" xmlns="http://www.w3.org/2000/svg">
<path d="M12.1299 7.61179L9.68329 6.19879L7.23668 7.61179L7.19147 7.63722L9.70378 9.10392L12.1765 7.63934L12.1299 7.61179Z" fill="#EFEFEF"/>
<path d="M7.19078 7.63727V10.4922L9.63669 11.9052L9.68331 11.9321L9.7031 9.10114L7.19078 7.63727Z" fill="#36363C"/>
<path d="M12.1758 7.6394L9.70309 9.10398L9.6833 11.9349L9.72993 11.9081L12.1765 10.4951V7.6394H12.1758Z" fill="#5E5E63"/>
<path d="M12.1765 7.64005V7.69445L9.74972 9.13147L9.72994 11.908L9.68331 11.9349L9.63668 11.908L9.65576 9.13147L7.19078 7.69304V7.63722L7.19149 7.63652L7.2367 7.61108L9.70309 9.04952L12.1299 7.61179L12.1758 7.63864V7.63934L12.1765 7.64005Z" fill="white"/>
<path d="M8.57904 1.44126L8.53453 1.41583L6.08792 0L3.6406 1.413L3.5968 1.43773L6.10134 2.90442L8.58045 1.43914L8.57904 1.44126Z" fill="#EFEFEF"/>
<path d="M3.59608 1.44055V4.29552L6.0427 5.70852L6.08932 5.73607L6.10204 2.90513L3.59608 1.44055Z" fill="#28282D"/>
<path d="M8.57975 1.44196L6.10064 2.90724L6.08792 5.73959L6.13526 5.71204L8.58045 4.29904V1.44196H8.57975Z" fill="#5E5E63"/>
<path d="M8.58045 1.4441V1.4978L6.15362 2.93411L6.13525 5.71065L6.08792 5.7375L6.04129 5.71065L6.06036 2.93411L3.59468 1.49568V1.44198L3.59539 1.44057L3.5968 1.43986L3.6406 1.41443L6.10699 2.85357L8.53453 1.41584L8.57904 1.44128L8.57974 1.44198L8.58045 1.4441Z" fill="white"/>
<path d="M4.93914 7.61179L2.49253 6.19879L0.0466292 7.61179L0 7.63864V10.4936L2.4452 11.9066L2.49112 11.9327L2.53704 11.9059L4.98294 10.4929V7.63934L4.93914 7.61179Z" fill="#EFEFEF"/>
<path d="M0 7.63727V10.4922L2.4452 11.9052L2.49112 11.9314L2.50949 9.10043L0 7.63727Z" fill="#D7D7D8"/>
<path d="M2.5116 9.10398L2.49252 11.9349L4.98505 10.4923V7.6394L2.5116 9.10398Z" fill="#86868A"/>
<path d="M4.98506 7.63938V7.69378L2.55823 9.1308L2.53916 11.9081L2.49324 11.9349H2.49253L2.49112 11.9342L2.4452 11.9081L2.46427 9.1308L0 7.69166V7.63726L0.0466292 7.61041L2.5109 9.04955L4.93914 7.61183L4.98506 7.63938Z" fill="white"/>
<path d="M12.1744 3.50639L12.1306 3.48166L9.68331 2.06866L7.23741 3.48166L7.19078 3.50851L9.7031 4.9745L12.1758 3.50992L12.1744 3.50639Z" fill="#EFEFEF"/>
<path d="M7.19078 3.50635V6.36061L9.63669 7.77361L9.68331 7.80116L9.7031 4.97022L7.19078 3.50635Z" fill="#36363C"/>
<path d="M12.1758 3.50781L9.70309 4.97239L9.6833 7.80333L9.72993 7.77578L12.1765 6.36278V3.50781H12.1758Z" fill="#5E5E63"/>
<path d="M4.93914 3.4788L2.49253 2.0658L0.0466292 3.4788L0 3.50564V6.3599L2.4452 7.7729L2.49253 7.80046L2.53916 7.7729L4.98506 6.3599V3.50776L4.93914 3.4788Z" fill="#EFEFEF"/>
<path d="M0 3.50635V6.36061L2.4452 7.77361L2.49253 7.80116L2.5109 4.97022L0 3.50635Z" fill="#D7D7D8"/>
<path d="M2.51089 4.97239L2.49252 7.80333L2.53915 7.77578L4.98505 6.36278V3.50781L2.51089 4.97239Z" fill="#86868A"/>
<path d="M4.98506 3.50775V3.56215L2.55823 4.99988L2.53916 7.77572L2.49253 7.80327L2.4452 7.77572L2.46427 4.99988L0 3.56074V3.50705L0.0466292 3.47949L2.5109 4.91863L4.93914 3.4802L4.98506 3.50775Z" fill="white"/>
<path d="M8.57903 9.70381L8.53452 9.67838L6.08791 8.26538L3.64201 9.67838L3.59608 9.70523L6.10063 11.1712L8.57973 9.70593L8.57903 9.70381Z" fill="#EFEFEF"/>
<path d="M3.59608 9.70374V12.558L6.0427 13.971L6.08932 13.9978L6.10204 11.1676L3.59608 9.70374Z" fill="#AFAFB1"/>
<path d="M8.57975 9.70447L6.10064 11.1697L6.08792 14L6.13526 13.9731L8.58045 12.5601V9.70447H8.57975Z" fill="#86868A"/>
<path d="M8.57973 5.57287L8.53381 5.54673L6.08791 4.13373L3.64201 5.54673L3.59608 5.57428V8.4243L6.04269 9.8373L6.08932 9.86415L6.13666 9.8373L8.58185 8.4243V5.57004L8.57973 5.57287Z" fill="#EFEFEF"/>
<path d="M3.59608 5.57214V8.42428L6.04269 9.83728L6.08932 9.86413L6.1084 7.03389L3.59608 5.57214Z" fill="#AFAFB1"/>
<path d="M8.57975 5.57288L6.107 7.03816L6.08792 9.8684L6.13526 9.84155L8.58045 8.42855V5.57429L8.57975 5.57288Z" fill="#86868A"/>
<path d="M8.58045 5.57429V5.62798L6.15362 7.065L6.13525 9.84155L6.08792 9.86839L6.04129 9.84155L6.06036 7.065L3.59468 5.62657V5.57288L3.59539 5.57217L3.64202 5.54462L6.10699 6.98376L8.53382 5.54603L8.57974 5.57217V5.57288L8.58045 5.57429Z" fill="white"/>
<path d="M12.1765 3.50987V3.56286L9.74972 5.00059L9.72994 7.77572L9.68331 7.80327L9.63668 7.77572L9.65576 4.99988L7.19078 3.56215V3.50705L7.23741 3.47949L9.70309 4.91934L12.1306 3.48161L12.1744 3.50705L12.1758 3.50775L12.1765 3.50987Z" fill="white"/>
<path d="M8.58045 9.70659V9.76028L6.15362 11.1966L6.13525 13.9731L6.08792 14L6.04129 13.9731L6.06036 11.1966L3.59468 9.75887V9.70447L3.59539 9.70376V9.70306L3.64202 9.67621L6.10699 11.1161L8.53453 9.67833L8.57904 9.70376L8.57974 9.70447L8.58045 9.70659Z" fill="white"/>
</svg>
