<svg width="44" height="50" viewBox="0 0 44 50" fill="none" xmlns="http://www.w3.org/2000/svg">
<path d="M43.3211 27.1852L34.5832 22.1388L25.8453 27.1852L25.6838 27.2761L34.6564 32.5142L43.4876 27.2836L43.3211 27.1852Z" fill="#EFEFEF"/>
<path d="M25.6814 27.2761V37.4724L34.4168 42.5189L34.5833 42.6147L34.654 32.5042L25.6814 27.2761Z" fill="#36363C"/>
<path d="M43.4851 27.2836L34.6538 32.5142L34.5832 42.6247L34.7497 42.5288L43.4876 37.4824V27.2836H43.4851Z" fill="#5E5E63"/>
<path d="M43.4877 27.2859V27.4802L34.8205 32.6124L34.7498 42.5287L34.5833 42.6246L34.4168 42.5287L34.4849 32.6124L25.6814 27.4752V27.2759L25.6839 27.2733L25.8454 27.1825L34.6539 32.3198L43.3212 27.185L43.4852 27.2809V27.2834L43.4877 27.2859Z" fill="white"/>
<path d="M30.6394 5.14736L30.4804 5.05652L21.7426 0L13.0021 5.04643L12.8457 5.13474L21.7905 10.3729L30.6445 5.13978L30.6394 5.14736Z" fill="#EFEFEF"/>
<path d="M12.8431 5.14478V15.3411L21.581 20.3875L21.7475 20.4859L21.7929 10.3754L12.8431 5.14478Z" fill="#28282D"/>
<path d="M30.642 5.15002L21.7881 10.3832L21.7427 20.4987L21.9117 20.4003L30.6446 15.3539V5.15002H30.642Z" fill="#5E5E63"/>
<path d="M30.6444 5.15749V5.34925L21.9771 10.4789L21.9116 20.3952L21.7425 20.4911L21.576 20.3952L21.6441 10.4789L12.8381 5.34168V5.14992L12.8406 5.14487L12.8456 5.14235L13.0021 5.05151L21.8106 10.1913L30.4804 5.05656L30.6393 5.1474L30.6419 5.14992L30.6444 5.15749Z" fill="white"/>
<path d="M17.6398 27.1852L8.9019 22.1388L0.166533 27.1852L0 27.2811V37.4774L8.73284 42.5238L8.89685 42.6172L9.06086 42.5213L17.7962 37.4749V27.2836L17.6398 27.1852Z" fill="#EFEFEF"/>
<path d="M0 27.2761V37.4724L8.73284 42.5189L8.89685 42.6122L8.96245 32.5017L0 27.2761Z" fill="#D7D7D8"/>
<path d="M8.97011 32.5142L8.90198 42.6247L17.8039 37.4723V27.2836L8.97011 32.5142Z" fill="#86868A"/>
<path d="M17.8038 27.2838V27.478L9.13655 32.6103L9.06843 42.529L8.90442 42.6249H8.90189L8.89685 42.6224L8.73284 42.529L8.80097 32.6103L0 27.4705V27.2762L0.166533 27.1803L8.9675 32.3201L17.6398 27.1853L17.8038 27.2838Z" fill="white"/>
<path d="M43.4802 12.5226L43.3237 12.4342L34.5833 7.38782L25.8479 12.4342L25.6814 12.5301L34.654 17.7658L43.4852 12.5352L43.4802 12.5226Z" fill="#EFEFEF"/>
<path d="M25.6814 12.5227V22.7165L34.4168 27.7629L34.5833 27.8613L34.654 17.7508L25.6814 12.5227Z" fill="#36363C"/>
<path d="M43.4851 12.528L34.6538 17.7586L34.5832 27.8691L34.7497 27.7707L43.4876 22.7243V12.528H43.4851Z" fill="#5E5E63"/>
<path d="M17.6398 12.4242L8.90189 7.37781L0.166533 12.4242L0 12.5201V22.7139L8.73284 27.7603L8.90189 27.8587L9.06843 27.7603L17.8038 22.7139V12.5277L17.6398 12.4242Z" fill="#EFEFEF"/>
<path d="M0 12.5227V22.7165L8.73284 27.7629L8.9019 27.8613L8.9675 17.7508L0 12.5227Z" fill="#D7D7D8"/>
<path d="M8.96758 17.7586L8.90198 27.8691L9.06851 27.7707L17.8039 22.7243V12.528L8.96758 17.7586Z" fill="#86868A"/>
<path d="M17.8038 12.5277V12.722L9.13655 17.8567L9.06843 27.7704L8.90189 27.8688L8.73284 27.7704L8.80097 17.8567L0 12.7169V12.5252L0.166533 12.4268L8.9675 17.5665L17.6398 12.4293L17.8038 12.5277Z" fill="white"/>
<path d="M30.6393 34.6564L30.4803 34.5656L21.7425 29.5192L13.0071 34.5656L12.8431 34.6615L21.7879 39.8971L30.6418 34.664L30.6393 34.6564Z" fill="#EFEFEF"/>
<path d="M12.8431 34.6562V44.85L21.581 49.8965L21.7475 49.9923L21.7929 39.8843L12.8431 34.6562Z" fill="#AFAFB1"/>
<path d="M30.642 34.6588L21.7881 39.892L21.7427 50L21.9117 49.9041L30.6446 44.8576V34.6588H30.642Z" fill="#86868A"/>
<path d="M30.6418 19.9033L30.4778 19.81L21.7425 14.7635L13.0071 19.81L12.8431 19.9084V30.087L21.581 35.1335L21.7475 35.2293L21.9166 35.1335L30.6494 30.087V19.8932L30.6418 19.9033Z" fill="#EFEFEF"/>
<path d="M12.8431 19.9005V30.0867L21.581 35.1332L21.7475 35.229L21.8156 25.121L12.8431 19.9005Z" fill="#AFAFB1"/>
<path d="M30.642 19.9031L21.8108 25.1362L21.7427 35.2442L21.9117 35.1483L30.6446 30.1019V19.9081L30.642 19.9031Z" fill="#86868A"/>
<path d="M30.6444 19.9083V20.1001L21.9771 25.2323L21.9116 35.1486L21.7425 35.2444L21.576 35.1486L21.6441 25.2323L12.8381 20.0951V19.9033L12.8406 19.9008L13.0071 19.8024L21.8106 24.9422L30.4779 19.8074L30.6419 19.9008V19.9033L30.6444 19.9083Z" fill="white"/>
<path d="M43.4877 12.5353V12.7245L34.8205 17.8592L34.7498 27.7704L34.5833 27.8688L34.4168 27.7704L34.4849 17.8567L25.6814 12.722V12.5252L25.8479 12.4268L34.6539 17.5691L43.3237 12.4343L43.4801 12.5252L43.4852 12.5277L43.4877 12.5353Z" fill="white"/>
<path d="M30.6444 34.6666V34.8584L21.9771 39.9881L21.9116 49.9043L21.7425 50.0002L21.576 49.9043L21.6441 39.9881L12.8381 34.8533V34.659L12.8406 34.6565V34.654L13.0071 34.5581L21.8106 39.7004L30.4804 34.5657L30.6393 34.6565L30.6419 34.659L30.6444 34.6666Z" fill="white"/>
</svg>
