<svg width="58" height="50" viewBox="0 0 58 50" fill="none" xmlns="http://www.w3.org/2000/svg">
<path d="M57.0909 39.4214L47.6175 49.319C47.4116 49.534 47.1624 49.7055 46.8855 49.8226C46.6086 49.9398 46.31 50.0002 46.0081 50H1.09979C0.885506 50 0.675892 49.939 0.496706 49.8245C0.317517 49.7101 0.176557 49.5471 0.0911455 49.3556C0.00573426 49.1642 -0.020408 48.9526 0.0159308 48.7469C0.0522696 48.5411 0.149506 48.3502 0.295694 48.1976L9.7762 38.3C9.98159 38.0856 10.2299 37.9145 10.5059 37.7974C10.7819 37.6802 11.0797 37.6195 11.3807 37.619H56.2866C56.5009 37.619 56.7105 37.6801 56.8898 37.7945C57.0688 37.909 57.2097 38.072 57.2955 38.2634C57.3807 38.4549 57.4068 38.6664 57.3705 38.8722C57.3341 39.0779 57.2369 39.2688 57.0909 39.4214ZM47.6175 19.4905C47.4116 19.2755 47.1624 19.104 46.8855 18.9869C46.6086 18.8698 46.31 18.8094 46.0081 18.8095H1.09979C0.885506 18.8095 0.675892 18.8705 0.496706 18.985C0.317517 19.0995 0.176557 19.2624 0.0911455 19.4539C0.00573426 19.6453 -0.020408 19.8569 0.0159308 20.0627C0.0522696 20.2684 0.149506 20.4593 0.295694 20.6119L9.7762 30.5095C9.98159 30.724 10.2299 30.895 10.5059 31.0122C10.7819 31.1293 11.0797 31.19 11.3807 31.1905H56.2866C56.5009 31.1905 56.7105 31.1295 56.8898 31.015C57.0688 30.9005 57.2097 30.7376 57.2955 30.5461C57.3807 30.3547 57.4068 30.1431 57.3705 29.9373C57.3341 29.7316 57.2369 29.5407 57.0909 29.3881L47.6175 19.4905ZM1.09979 12.381H46.0081C46.31 12.3811 46.6086 12.3207 46.8855 12.2036C47.1624 12.0864 47.4116 11.915 47.6175 11.7L57.0909 1.80238C57.2369 1.64976 57.3341 1.45885 57.3705 1.25312C57.4068 1.0474 57.3807 0.835813 57.2955 0.644364C57.2097 0.452915 57.0688 0.289941 56.8898 0.175468C56.7105 0.0609937 56.5009 7.04966e-06 56.2866 0H11.3807C11.0797 0.000499089 10.7819 0.0611926 10.5059 0.178323C10.2299 0.295453 9.98159 0.466527 9.7762 0.680955L0.298138 10.5786C0.152092 10.731 0.0548976 10.9218 0.0184764 11.1272C-0.0179448 11.3327 0.00799 11.5441 0.0931 11.7355C0.17821 11.9269 0.318796 12.0898 0.497616 12.2045C0.676438 12.3191 0.885716 12.3805 1.09979 12.381Z" fill="url(#paint0_linear_10_488)"/>
<defs>
<linearGradient id="paint0_linear_10_488" x1="4.84408" y1="51.1916" x2="50.5644" y2="-1.71377" gradientUnits="userSpaceOnUse">
<stop offset="0.08" stop-color="#9945FF"/>
<stop offset="0.3" stop-color="#8752F3"/>
<stop offset="0.5" stop-color="#5497D5"/>
<stop offset="0.6" stop-color="#43B4CA"/>
<stop offset="0.72" stop-color="#28E0B9"/>
<stop offset="0.97" stop-color="#19FB9B"/>
</linearGradient>
</defs>
</svg>
